HIERARCHY
ROOT Hips
{
	OFFSET -3.958830 18.904000 13.208200
	CHANNELS 6 Xposition Yposition Zposition Zrotation Yrotation Xrotation 
	JOINT LHipJoint
	{
		OFFSET 0.000000 0.000000 0.000000
		CHANNELS 3 Zrotation Yrotation Xrotation
		JOINT LeftUpLeg
		{
			OFFSET 1.800000 -1.400000 0.085000
			CHANNELS 3 Zrotation Yrotation Xrotation
			JOINT LeftLeg
			{
				OFFSET 2.215000 -6.000000 0.000000
				CHANNELS 3 Zrotation Yrotation Xrotation
				JOINT LeftFoot
				{
					OFFSET 2.500000 -6.900000 0.000000
					CHANNELS 3 Zrotation Yrotation Xrotation
					JOINT LeftToeBase
					{
						OFFSET 0.200000 -0.500000 1.950000
						CHANNELS 3 Zrotation Yrotation Xrotation
						End Site
						{
							OFFSET 0.000000 0.000000 0.000000
						}
					}
				}
			}
		}
	}
	JOINT RHipJoint
	{
		OFFSET 0.000000 0.000000 0.000000
		CHANNELS 3 Zrotation Yrotation Xrotation
		JOINT RightUpLeg
		{
			OFFSET -1.800000 -1.400000 0.085000
			CHANNELS 3 Zrotation Yrotation Xrotation
			JOINT RightLeg
			{
				OFFSET -2.215000 -6.000000 0.000000
				CHANNELS 3 Zrotation Yrotation Xrotation
				JOINT RightFoot
				{
					OFFSET -2.500000 -6.900000 0.000000
					CHANNELS 3 Zrotation Yrotation Xrotation
					JOINT RightToeBase
					{
						OFFSET -0.200000 -0.500000 1.950000
						CHANNELS 3 Zrotation Yrotation Xrotation
						End Site
						{
							OFFSET 0.000000 0.000000 0.000000
						}
					}
				}
			}
		}
	}
	JOINT LowerBack
	{
		OFFSET 0.000000 0.000000 0.000000
		CHANNELS 3 Zrotation Yrotation Xrotation
		JOINT Spine
		{
			OFFSET -0.087000 1.940000 -0.288900
			CHANNELS 3 Zrotation Yrotation Xrotation
			JOINT Spine1
			{
				OFFSET 0.000000 1.950000 0.060000
				CHANNELS 3 Zrotation Yrotation Xrotation
				JOINT Neck
				{
					OFFSET 0.000000 0.000000 0.000000
					CHANNELS 3 Zrotation Yrotation Xrotation
					JOINT Neck1
					{
						OFFSET 0.000000 1.600000 0.340000
						CHANNELS 3 Zrotation Yrotation Xrotation
						JOINT Head
						{
							OFFSET 0.000000 1.667000 -0.240000
							CHANNELS 3 Zrotation Yrotation Xrotation
							End Site
							{
								OFFSET 0.000000 0.000000 0.000000
							}
						}
					}
				}
				JOINT LeftShoulder
				{
					OFFSET 0.000000 0.000000 0.000000
					CHANNELS 3 Zrotation Yrotation Xrotation
					JOINT LeftArm
					{
						OFFSET 2.700000 1.550000 -0.730000
						CHANNELS 3 Zrotation Yrotation Xrotation
						JOINT LeftForeArm
						{
							OFFSET 5.450000 0.000000 0.000000
							CHANNELS 3 Zrotation Yrotation Xrotation
							JOINT LeftHand
							{
								OFFSET 3.450000 0.000000 0.000000
								CHANNELS 3 Zrotation Yrotation Xrotation
								JOINT LeftHandIndex1
								{
									OFFSET 0.750000 0.000000 0.000000
									CHANNELS 3 Zrotation Yrotation Xrotation
									End Site
									{
										OFFSET 0.000000 0.000000 0.000000
									}
								}
							}
						}
					}
				}
				JOINT RightShoulder
				{
					OFFSET 0.000000 0.000000 0.000000
					CHANNELS 3 Zrotation Yrotation Xrotation
					JOINT RightArm
					{
						OFFSET -2.700000 1.550000 -0.730000
						CHANNELS 3 Zrotation Yrotation Xrotation
						JOINT RightForeArm
						{
							OFFSET -5.450000 0.000000 0.000000
							CHANNELS 3 Zrotation Yrotation Xrotation
							JOINT RightHand
							{
								OFFSET -3.450000 0.000000 0.000000
								CHANNELS 3 Zrotation Yrotation Xrotation
								JOINT RightHandIndex1
								{
									OFFSET -0.750000 0.000000 0.000000
									CHANNELS 3 Zrotation Yrotation Xrotation
									End Site
									{
										OFFSET 0.000000 0.000000 0.000000
									}
								}
							}
						}
					}
				}
			}
		}
	}
}
MOTION
Frames: 12
Frame Time: 0.016667
-1.794760 17.663650 -4.757410 -8.566847 16.476994 -1.030048 -15.361472 10.485664 6.578064 40.109805 -0.568664 -24.350897 -29.784635 9.431215 3.393465 -0.752499 10.033040 1.247501 -0.638720 -1.254450 -0.797610 18.699566 -9.555249 0.593544 -20.397539 -1.913941 -3.806700 1.568710 -6.778663 14.166286 -0.147495 -4.713345 2.953321 -0.285970 1.657820 0.294460 -4.130699 -2.327975 -8.197504 18.592295 -2.296850 11.370240 -14.305875 0.398300 3.815404 0.293551 -10.948631 -10.294303 -28.001950 12.543301 27.179128 5.249600 -0.135230 -6.968940 -16.097109 2.635603 0.376833 -54.655871 -15.956932 15.892442 -146.980864 -56.098022 113.753615 -4.481702 2.631143 1.129740 0.652900 -0.561020 0.242950 14.431507 0.532963 7.635105 50.203845 -19.853492 -15.722998 29.869790 41.054987 8.033655 1.240491 -0.811833 -1.226490 1.169490 1.093580 -0.110390 
-1.576450 17.658350 -4.768300 -8.547799 17.375675 -1.683044 -15.358267 10.643393 6.546000 39.209090 -1.012542 -23.877529 -30.896916 9.625017 4.005855 -0.711580 10.055990 1.240145 -0.673160 -1.305440 -0.804260 18.663158 -9.617283 0.592975 -20.152755 -2.206556 -3.007778 0.891222 -6.792206 14.611101 -0.169644 -4.725682 2.969455 -0.336510 1.626480 0.282020 -4.105278 -2.509538 -8.227291 18.720759 -2.885289 12.387411 -14.475696 -0.114550 3.015866 0.821624 -10.895333 -10.748076 -28.479946 12.247978 27.931802 4.971740 -0.334580 -7.079530 -16.176585 2.654978 0.522325 -53.969025 -14.318523 14.385948 -146.193526 -55.849845 111.781943 -4.464239 2.606661 1.171440 0.621490 -0.541220 0.226250 13.695048 0.442257 8.058114 52.456620 -21.125365 -17.133364 30.419829 42.150449 8.409100 1.234972 -0.779511 -1.230430 1.156480 1.102130 -0.124320 
-1.365960 17.655250 -4.777150 -8.123170 17.993987 -1.861822 -15.339168 10.773583 6.459091 37.930900 -1.407357 -24.266846 -32.322697 10.360236 5.828617 -0.617247 10.053671 1.257024 -0.641300 -1.246380 -0.777900 18.638030 -9.706388 0.620427 -20.199249 -2.385855 -3.079326 1.740180 -7.188207 15.737323 -0.189678 -4.781117 2.960666 -0.330690 1.580220 0.227920 -4.116521 -2.545285 -8.224177 18.270223 -3.059617 12.866694 -14.159191 -0.353165 2.191998 0.775776 -10.851869 -10.713933 -28.634401 12.510591 28.455948 5.805070 -0.327970 -6.795750 -16.654983 3.088938 0.494181 -53.381714 -12.872606 13.152470 -144.100616 -55.914370 108.565347 -4.396119 2.617178 1.155300 0.573940 -0.522490 0.245190 14.332662 0.047418 7.962023 53.181823 -21.486102 -17.561236 29.230480 42.077431 7.978543 1.283438 -0.776856 -1.208060 1.153650 1.036880 -0.112230 
-1.161820 17.641070 -4.785490 -7.817817 18.324864 -1.822352 -15.308368 10.965987 6.349444 36.387184 -1.761439 -25.840886 -32.967252 11.689399 9.350242 -0.660314 10.232828 1.191031 -0.697150 -1.339610 -0.780790 18.619884 -9.936329 0.562827 -19.808597 -2.332063 -4.058852 0.325389 -7.177456 18.160974 -0.152154 -4.781054 2.941870 -0.361760 1.613360 0.232100 -4.165644 -2.443552 -8.146915 18.152538 -3.014364 13.101300 -14.226013 -0.396976 1.243155 0.798510 -10.688842 -10.253628 -27.779292 12.428719 28.883599 5.475380 -0.105850 -6.659850 -16.496600 3.949566 0.164559 -52.800403 -11.797914 12.457540 -140.997214 -55.591917 103.773410 -4.451877 2.597005 1.190120 0.591910 -0.542070 0.214220 14.041777 -0.792550 7.373484 54.213401 -20.073416 -17.084678 27.651191 38.477638 6.721485 1.321248 -0.654369 -1.260430 1.177470 1.089780 -0.138590 
-0.962410 17.624100 -4.788940 -6.983088 18.316950 -1.617425 -15.299968 11.172368 6.248783 34.437333 -2.207876 -27.118571 -33.746969 13.024687 12.694575 -0.616764 10.390028 1.131662 -0.692890 -1.340680 -0.771000 18.573518 -10.122405 0.534148 -19.264689 -2.148281 -5.387648 -0.596602 -7.231627 20.867367 -0.139821 -4.833055 2.900553 -0.366840 1.603920 0.261030 -4.129516 -2.407319 -8.089473 17.077498 -2.523189 13.195909 -13.356482 0.040457 0.985907 0.769491 -10.546137 -9.810550 -26.908527 12.340755 29.196451 4.596920 0.406140 -6.250860 -17.156774 4.351909 -0.158272 -52.454124 -10.876939 11.379070 -136.203319 -56.072213 97.454898 -4.481658 2.629542 1.179330 0.605880 -0.537540 0.209930 14.668258 -0.910887 7.011848 54.599455 -18.935707 -16.787691 25.759372 35.942493 5.582960 1.355402 -0.625116 -1.241900 1.142780 1.088740 -0.144270 
-0.781170 17.614860 -4.808870 -6.482211 18.065262 -1.809893 -15.293799 11.375960 6.185189 32.897843 -2.596156 -28.469096 -33.642587 14.561802 16.688127 -0.585929 10.611129 1.039184 -0.699680 -1.353890 -0.761660 18.527657 -10.310523 0.520963 -18.319759 -1.896289 -7.509102 -1.384664 -7.507839 25.239448 -0.147488 -5.000823 2.812498 -0.378390 1.575090 0.258610 -4.092047 -2.343849 -8.103642 16.133712 -2.107230 14.107495 -12.433676 0.630499 0.525772 0.865456 -10.282278 -9.720129 -26.186043 12.241453 30.418271 4.283910 0.556020 -6.304150 -17.890492 3.864804 -0.310442 -51.876557 -9.700274 9.483279 -127.737112 -55.997933 85.823156 -4.499482 2.635380 1.201190 0.589860 -0.524460 0.194270 15.216436 -0.109411 6.998457 55.940229 -17.838524 -17.160673 22.723349 33.754216 4.266338 1.390936 -0.554138 -1.243800 1.127260 1.093510 -0.161010 
-0.603730 17.609590 -4.849070 -5.622919 18.078969 -2.634398 -15.299737 11.682743 6.021431 30.589781 -3.285029 -29.734916 -31.804323 16.115695 22.035080 -0.586810 10.826244 0.933276 -0.697380 -1.385470 -0.697060 18.432211 -10.475657 0.624467 -18.410740 -1.587880 -9.556816 -1.029240 -8.333627 29.824374 -0.208279 -5.373919 2.627282 -0.405480 1.507370 0.265970 -3.969799 -2.413930 -8.197426 14.358143 -1.698092 16.401058 -10.993443 1.310232 -0.155865 1.043274 -9.942586 -9.621663 -25.623131 11.774573 32.349860 3.424480 0.707480 -7.268620 -19.627527 3.055756 -0.579376 -50.930931 -8.788346 7.452671 -121.469769 -56.336293 78.193032 -4.503772 2.597882 1.260150 0.547990 -0.486490 0.152000 16.667216 0.998581 7.095049 56.627003 -16.842478 -17.614650 20.686386 33.813896 3.756731 1.412814 -0.503253 -1.245610 1.100880 1.098400 -0.206510 
-0.453590 17.593050 -4.890230 -4.691380 17.422963 -3.392772 -15.318578 11.976999 5.814661 28.342355 -3.674800 -31.074576 -28.021091 17.424354 28.220228 -0.558467 11.030549 0.839686 -0.668130 -1.360970 -0.652390 18.337041 -10.566399 0.814471 -18.289411 -0.866337 -12.182026 -0.715071 -9.017877 34.401827 -0.296536 -5.811872 2.440027 -0.414630 1.441110 0.274240 -3.809574 -2.485842 -8.304682 12.356835 -1.001035 18.762124 -9.359662 2.218801 -0.997291 1.027690 -9.710217 -9.664017 -25.544619 11.577826 34.430839 2.821510 0.646380 -7.769770 -21.235331 2.085305 -0.712900 -49.959528 -7.894546 5.529069 -113.047340 -55.451208 67.741359 -4.477674 2.604044 1.286360 0.509190 -0.441520 0.142640 18.451688 2.521624 7.308726 57.104156 -15.678574 -18.186125 18.997406 36.173960 3.686697 1.419686 -0.516998 -1.214150 1.067710 1.070620 -0.221410 
-0.317480 17.569280 -4.942920 -3.296341 16.779166 -3.861756 -15.330657 12.314427 5.446799 25.156195 -4.216223 -32.238649 -21.778359 17.474893 34.874708 -0.569792 11.008657 0.833654 -0.577430 -1.258190 -0.594770 18.252259 -10.637711 1.080810 -18.295284 0.029057 -15.363103 -0.889051 -9.518123 39.360772 -0.448403 -6.355385 2.209730 -0.386690 1.379180 0.295980 -3.663374 -2.583665 -8.320967 9.948059 -0.462382 20.875375 -7.673671 2.712808 -1.675329 0.573805 -9.888792 -9.579412 -26.358049 12.133877 35.634626 3.397630 0.297590 -9.483700 -21.888022 1.539764 -0.686531 -49.993234 -7.075032 3.344709 -102.098937 -53.783774 55.263330 -4.396198 2.633109 1.312090 0.451080 -0.371880 0.173230 20.170044 3.871017 7.063841 56.781345 -13.278207 -17.819439 18.218636 36.485026 3.427707 1.461162 -0.536554 -1.156430 1.050540 1.007850 -0.207840 
-0.187750 17.537880 -4.984910 -1.719737 16.333103 -4.832440 -15.364948 12.816279 4.933590 21.131564 -4.732456 -32.574534 -13.188826 15.640552 41.397590 -0.657069 10.622822 0.929913 -0.548580 -1.166310 -0.591170 18.113384 -10.745574 1.409365 -18.616660 0.783413 -17.504741 -0.557925 -9.952836 42.546904 -0.560183 -6.751054 2.066752 -0.363560 1.302210 0.280030 -3.421019 -2.797076 -8.311009 6.759311 0.429546 23.537884 -5.681111 3.388647 -2.665636 0.370969 -9.582669 -9.392537 -26.272190 11.885876 38.420900 3.126680 -0.011850 -11.946020 -22.639322 1.101580 -0.787202 -49.411155 -6.204320 1.286741 -93.376856 -51.638255 45.910341 -4.329516 2.570038 1.336080 0.402660 -0.299560 0.163520 21.565760 5.015925 6.776326 56.749665 -10.892608 -17.472788 16.812754 35.976727 2.948036 1.491496 -0.479092 -1.115900 1.054520 0.981460 -0.199760 
-0.056940 17.513360 -5.028790 -0.940033 15.709807 -5.813512 -15.349011 13.311042 4.303193 16.953548 -4.724107 -32.199156 -3.241500 11.704342 45.681770 -0.762290 9.752543 1.218758 -0.462430 -1.032460 -0.525920 18.037356 -10.853620 1.823341 -18.304090 1.851919 -19.843489 0.065570 -10.406303 45.732961 -0.718163 -7.163263 1.928638 -0.338660 1.195560 0.281190 -3.348830 -2.862428 -8.258691 5.448859 1.079565 25.590446 -4.638251 3.966930 -3.404888 0.505688 -9.045623 -9.775928 -25.895812 11.981369 42.413927 2.751460 0.088040 -13.870830 -23.093786 -0.473078 -0.261865 -48.638101 -4.841334 -1.259615 -84.350186 -49.186067 36.856027 -4.222411 2.518369 1.365600 0.335680 -0.197850 0.178530 21.991674 7.111175 6.860489 57.990249 -8.214917 -17.260985 14.445415 34.537891 2.046702 1.541004 -0.440444 -1.042120 1.033050 0.900950 -0.194060 
0.081370 17.449340 -5.070680 -0.704428 15.614543 -6.360796 -15.338245 13.631919 3.757294 13.666837 -4.419477 -31.342433 5.035509 7.493161 46.333671 -0.868308 8.860046 1.537102 -0.443640 -0.968860 -0.523520 18.008214 -10.784265 2.287722 -18.574803 2.944953 -22.297384 2.527365 -11.971847 48.597438 -0.883341 -7.765875 1.729231 -0.330490 1.162700 0.292050 -3.331134 -2.963095 -8.239540 5.094621 1.224757 27.006427 -3.681950 4.023437 -4.099393 0.454114 -8.809892 -9.757706 -25.459479 11.527156 44.671883 2.469780 -0.417970 -16.117390 -22.523267 -0.839049 -0.078913 -49.434124 -4.522224 -2.322183 -76.909146 -46.482161 30.051837 -4.192762 2.434700 1.381510 0.311740 -0.135450 0.178490 21.634247 7.948565 6.510913 58.666695 -5.332594 -16.393730 13.440962 33.429909 1.736403 1.571660 -0.380494 -1.003120 1.050860 0.888430 -0.174220 
